<svg width="612" height="70" viewBox="0 0 612 70" fill="none" xmlns="http://www.w3.org/2000/svg">
<path d="M562.9 67.2314C560.658 65.6917 560.323 63.7168 561.896 61.3068L580.272 34.1942L560.892 6.88074C559.386 4.67156 559.754 2.69669 561.996 0.956128C564.306 -0.617075 566.247 -0.248879 567.821 2.06071L585.795 27.2654L603.87 2.06071C605.611 -0.181932 607.552 -0.483183 609.695 1.15696C611.971 2.83058 612.305 4.77198 610.699 6.98115L590.917 34.4954L609.895 61.2064C611.469 63.516 611.1 65.5243 608.791 67.2314C606.481 68.8046 604.54 68.4364 602.967 66.1268L585.494 41.5246L568.825 66.2273C567.285 68.403 565.31 68.7377 562.9 67.2314Z" fill="black"/>
<path d="M509.051 46.1438V48.5538C509.051 52.8718 509.837 55.8173 511.41 57.3905C512.984 58.9303 515.946 59.7001 520.297 59.7001H528.532C531.946 59.7001 534.473 59.3822 536.113 58.7462C537.753 58.1102 538.841 56.9889 539.377 55.3822C539.745 54.1103 540.247 53.1396 540.883 52.4701C541.552 51.8007 542.557 51.4659 543.895 51.4659C545.301 51.4659 546.372 51.8341 547.109 52.5705C547.845 53.3069 548.079 54.378 547.812 55.7839C547.075 59.9345 545.1 63.0306 541.887 65.0725C538.674 67.1143 534.222 68.1352 528.532 68.1352H520.297C513.636 68.1352 508.682 66.5285 505.436 63.3152C502.222 60.1018 500.616 55.1814 500.616 48.5538V36.9055C500.616 30.1106 502.222 25.1232 505.436 21.9433C508.682 18.73 513.636 17.1568 520.297 17.2237H528.532C535.226 17.2237 540.18 18.8304 543.393 22.0437C546.607 25.2236 548.213 30.1775 548.213 36.9055V41.9263C548.213 44.738 546.808 46.1438 543.996 46.1438H509.051ZM520.297 25.6587C515.946 25.5918 512.984 26.3449 511.41 27.9181C509.837 29.4913 509.051 32.4871 509.051 36.9055V37.7088H539.778V36.9055C539.778 32.5206 538.992 29.5583 537.419 28.0185C535.879 26.4453 532.916 25.6587 528.532 25.6587H520.297Z" fill="black"/>
<path d="M486.466 68.1352C479.839 68.1352 474.952 66.562 471.805 63.4156C468.659 60.2692 467.086 55.4157 467.086 48.8551V25.6587H462.165C459.354 25.6587 457.948 24.2529 457.948 21.4412C457.948 18.6295 459.354 17.2237 462.165 17.2237H467.086V9.89326C467.086 7.08158 468.492 5.67574 471.303 5.67574C474.115 5.67574 475.521 7.08158 475.521 9.89326V17.2237H487.069C489.88 17.2237 491.286 18.6295 491.286 21.4412C491.286 24.2529 489.88 25.6587 487.069 25.6587H475.521V48.8551C475.521 53.1061 476.291 55.9847 477.83 57.491C479.37 58.9638 482.249 59.7001 486.466 59.7001C487.772 59.7001 488.793 60.0349 489.529 60.7043C490.299 61.3738 490.684 62.4449 490.684 63.9177C490.684 66.7294 489.278 68.1352 486.466 68.1352Z" fill="black"/>
<path d="M415.332 68.1352C409.708 68.1352 405.524 66.7628 402.779 64.0181C400.035 61.2734 398.662 57.0893 398.662 51.4659C398.662 45.8426 400.018 41.6585 402.729 38.9138C405.474 36.1691 409.675 34.7967 415.332 34.7967H436.57C436.369 31.2821 435.449 28.8888 433.808 27.6169C432.168 26.3115 429.357 25.6587 425.373 25.6587H419.549C416.202 25.6587 413.708 25.8931 412.068 26.3617C410.428 26.7968 409.273 27.6001 408.604 28.7717C408.001 30.1775 407.382 31.1482 406.746 31.6838C406.11 32.2193 405.156 32.4871 403.884 32.4871C402.478 32.4871 401.374 32.1022 400.57 31.3323C399.767 30.529 399.533 29.4746 399.867 28.1692C400.872 24.3868 402.964 21.6253 406.143 19.8848C409.357 18.1107 413.825 17.2237 419.549 17.2237H425.373C432.068 17.2237 437.022 18.8304 440.235 22.0437C443.448 25.2571 445.055 30.211 445.055 36.9055V63.9177C445.055 66.7294 443.649 68.1352 440.838 68.1352C438.026 68.1352 436.62 66.7294 436.62 63.9177V61.6583C433.039 65.9762 427.817 68.1352 420.955 68.1352H415.332ZM415.332 59.7001H420.955C423.432 59.7001 425.758 59.4826 427.934 59.0474C430.11 58.5788 431.967 57.742 433.507 56.537C435.08 55.332 436.118 53.6082 436.62 51.3655V43.2317H415.332C412.018 43.2317 409.809 43.784 408.704 44.8886C407.633 45.9932 407.097 48.1856 407.097 51.4659C407.097 54.7797 407.633 56.9889 408.704 58.0935C409.809 59.1646 412.018 59.7001 415.332 59.7001Z" fill="black"/>
<path d="M382.127 68.1352C375.499 68.1352 370.612 66.562 367.466 63.4156C364.319 60.2692 362.746 55.4157 362.746 48.8551V25.6587H357.826C355.014 25.6587 353.608 24.2529 353.608 21.4412C353.608 18.6295 355.014 17.2237 357.826 17.2237H362.746V9.89326C362.746 7.08158 364.152 5.67574 366.964 5.67574C369.775 5.67574 371.181 7.08158 371.181 9.89326V17.2237H382.729C385.541 17.2237 386.947 18.6295 386.947 21.4412C386.947 24.2529 385.541 25.6587 382.729 25.6587H371.181V48.8551C371.181 53.1061 371.951 55.9847 373.491 57.491C375.03 58.9638 377.909 59.7001 382.127 59.7001C383.432 59.7001 384.453 60.0349 385.189 60.7043C385.959 61.3738 386.344 62.4449 386.344 63.9177C386.344 66.7294 384.938 68.1352 382.127 68.1352Z" fill="black"/>
<path d="M316.227 68.1352C309.566 68.1352 304.612 66.5285 301.365 63.3152C298.152 60.1018 296.545 55.1814 296.545 48.5538V36.9055C296.545 30.1775 298.152 25.2236 301.365 22.0437C304.612 18.8304 309.566 17.2237 316.227 17.2237H324.461C331.156 17.2237 336.11 18.8304 339.323 22.0437C342.536 25.2571 344.143 30.211 344.143 36.9055V48.4534C344.143 55.1144 342.536 60.0683 339.323 63.3152C336.11 66.5285 331.156 68.1352 324.461 68.1352H316.227ZM304.98 48.5538C304.98 52.8718 305.767 55.8174 307.34 57.3906C308.913 58.9303 311.876 59.7001 316.227 59.7001H324.461C328.846 59.7001 331.808 58.9135 333.348 57.3403C334.921 55.7671 335.708 52.8048 335.708 48.4534V36.9055C335.708 32.5206 334.921 29.5583 333.348 28.0185C331.808 26.4453 328.846 25.6587 324.461 25.6587H316.227C313.315 25.6587 311.039 25.9935 309.399 26.6629C307.792 27.2989 306.654 28.4369 305.985 30.0771C305.315 31.6838 304.98 33.9599 304.98 36.9055V48.5538Z" fill="black"/>
<path d="M236.686 68.1352C233.874 68.1352 232.468 66.7294 232.468 63.9177V21.4412C232.468 18.6295 233.874 17.2237 236.686 17.2237C239.497 17.2237 240.903 18.6295 240.903 21.4412V23.0981C244.451 19.1818 249.673 17.2237 256.568 17.2237H259.38C266.074 17.2237 271.028 18.8304 274.242 22.0437C277.455 25.2571 279.062 30.211 279.062 36.9055V63.9177C279.062 66.7294 277.656 68.1352 274.844 68.1352C272.033 68.1352 270.627 66.7294 270.627 63.9177V36.9055C270.627 32.5206 269.823 29.5583 268.217 28.0185C266.644 26.4453 263.698 25.6587 259.38 25.6587H256.568C252.552 25.6587 249.054 26.1274 246.075 27.0646C243.096 27.9683 241.372 29.4077 240.903 31.3825V63.9177C240.903 66.7294 239.497 68.1352 236.686 68.1352Z" fill="black"/>
<path d="M170.199 68.1352C167.387 68.1352 165.981 66.7294 165.981 63.9177V21.4412C165.981 18.6295 167.387 17.2237 170.199 17.2237C173.01 17.2237 174.416 18.6295 174.416 21.4412V23.0981C177.964 19.1818 183.186 17.2237 190.081 17.2237H192.893C199.587 17.2237 204.541 18.8304 207.755 22.0437C210.968 25.2571 212.575 30.211 212.575 36.9055V63.9177C212.575 66.7294 211.169 68.1352 208.357 68.1352C205.545 68.1352 204.14 66.7294 204.14 63.9177V36.9055C204.14 32.5206 203.336 29.5583 201.73 28.0185C200.156 26.4453 197.211 25.6587 192.893 25.6587H190.081C186.065 25.6587 182.567 26.1274 179.588 27.0646C176.609 27.9683 174.885 29.4077 174.416 31.3825V63.9177C174.416 66.7294 173.01 68.1352 170.199 68.1352Z" fill="black"/>
<path d="M96.8691 67.7335C94.1913 66.6959 93.3879 64.8549 94.459 62.2106L118.358 3.36614C119.362 1.15696 120.936 0.0523758 123.078 0.0523758H123.279C125.454 0.152794 126.927 1.25738 127.697 3.36614L151.998 62.2106C153.069 64.8549 152.299 66.6959 149.688 67.7335C147.044 68.7712 145.203 68.0013 144.166 65.4239L138.743 52.2693H107.463L102.292 65.4239C101.254 68.0348 99.4464 68.8046 96.8691 67.7335ZM110.777 43.8342H135.279L122.777 13.4079L110.777 43.8342Z" fill="black"/>
<path d="M0 5C0 2.23858 2.23858 0 5 0H65C67.7614 0 70 2.23858 70 5V65C70 67.7614 67.7614 70 65 70H5C2.23858 70 0 67.7614 0 65V5Z" fill="black"/>
<path d="M23.6667 43H47C47.4667 43 47.8167 42.7861 48.05 42.3583C48.2833 41.9306 48.2444 41.5222 47.9333 41.1333L41.5167 32.5583C41.2833 32.2472 40.9722 32.0917 40.5833 32.0917C40.1944 32.0917 39.8833 32.2472 39.65 32.5583L33.5833 40.6667L29.2667 34.8917C29.0333 34.5806 28.7222 34.425 28.3333 34.425C27.9444 34.425 27.6333 34.5806 27.4 34.8917L22.7333 41.1333C22.4222 41.5222 22.3833 41.9306 22.6167 42.3583C22.85 42.7861 23.2 43 23.6667 43ZM21.3333 52.3333L15.9667 57.7C15.2278 58.4389 14.3819 58.6042 13.4292 58.1958C12.4764 57.7875 12 57.0583 12 56.0083V19.6667C12 18.3833 12.4569 17.2847 13.3708 16.3708C14.2847 15.4569 15.3833 15 16.6667 15H54C55.2833 15 56.3819 15.4569 57.2958 16.3708C58.2097 17.2847 58.6667 18.3833 58.6667 19.6667V47.6667C58.6667 48.95 58.2097 50.0486 57.2958 50.9625C56.3819 51.8764 55.2833 52.3333 54 52.3333H21.3333Z" fill="white"/>
</svg>
